<svg height="512pt" viewBox="0 0 512 512" width="512pt" xmlns="http://www.w3.org/2000/svg"><path d="m0 45v407h166c31.597656 0 56.792969 6.324219 75 18.78125v-3.78125c0-24.8125-20.1875-45-45-45h-166v-377zm0 0"/><path d="m316 422c-24.8125 0-45 20.1875-45 45 12.542969-9.394531 28.128906-15 45-15h196v-30zm0 0"/><path d="m166 482h-166v30h238.058594c-8.234375-19.253906-33.488282-30-72.058594-30zm0 0"/><path d="m316 45c-24.8125 0-45 20.1875-45 45v317.035156c12.542969-9.433594 28.132812-15.035156 45-15.035156h196v-347zm-15 317v-287h181v287zm0 0"/><path d="m273.578125 512h238.421875v-30h-196c-19.554688 0-36.226562 12.539062-42.421875 30zm0 0"/><path d="m331 105h121v227h-121zm0 0"/><path d="m120 241h61v91h-61zm0 0"/><path d="m60 392h136c16.867188 0 32.457031 5.601562 45 15.035156v-362.035156c0-24.8125-20.1875-45-45-45h-136zm151-30h-121v-151h121zm0-332v151h-121v-151zm0 0"/><path d="m120 60h61v91h-61zm0 0"/></svg>